<svg xmlns="http://www.w3.org/2000/svg" viewBox="0 0 53.28 53.25"><defs><style>.cls-1{fill:#fefefe;}.cls-2{fill:#1d82d3;}.cls-3{fill:#1667b6;}.cls-4{fill:#1976d1;}.cls-5{fill:none;}.cls-6{fill:#2195f2;}.cls-7{fill:#dda706;}.cls-8{fill:#fec007;}.cls-9{fill:#008ff1;}.cls-10{fill:#007dd2;}.cls-11{fill:#1692f2;}.cls-12{fill:#016cce;}.cls-13{fill:#fdfdfe;}.cls-14{fill:#fdfefe;}.cls-15{fill:#fafafa;}.cls-16{fill:#1782d3;}.cls-17{fill:#1781d3;}.cls-18{fill:#005db2;}.cls-19{fill:#005fb3;}</style></defs><g id="Layer_2" data-name="Layer 2"><g id="Layer_1-2" data-name="Layer 1"><path class="cls-1" d="M19,34.41l-.21.05a.37.37,0,0,1,.07-.12.69.69,0,0,1,.13-.11l.12-.06a0,0,0,0,0,0,0h0l.06,0h0c3.4-.2,6.81-.06,10.22-.08a2.13,2.13,0,0,0,2.2-.74c1.62-1.67,3.27-3.29,4.91-4.93a2.7,2.7,0,0,0,.79-1.15c.11-5,0-10,0-15a6.22,6.22,0,0,0-6.21-5.29A5.19,5.19,0,0,1,29,6.76h0l0,0c-.46-.61-.58-1.49-1.47-1.74s-1.82,0-2.68-.3c-.75-.8-1.06-1.9-2-2.59A5.33,5.33,0,0,0,20,.62c-.34,0-.63-.18-.37-.62.07.13.14.36.22.37a5.6,5.6,0,0,1,4.77,4.06c1,.27,2.09-.24,3.07.31,1,.25,1.09,1.08,1.18,1.91A12,12,0,0,1,33.47,7a6.3,6.3,0,0,1,4.17,4.84q0,7.65,0,15.3c0,.22,0,.48-.24.6C35.39,29.85,33.35,32,31.27,34c-.37.36-.82.75-1.42.33l-10.9,0Z"/><path class="cls-1" d="M26.2,39.08c-1,1.13-2.25,2.07-2.89,3.54a23.46,23.46,0,0,0-.75,3.4c-.12.46-.22.66-.73.66-5.36,0-10.72,0-16.08,0a.83.83,0,0,1-.36-.11l-.19-.07a5.82,5.82,0,0,1-5-4.37c0-.22,0-.47-.24-.63.46-.06.48.34.56.6a5.69,5.69,0,0,0,4.85,4.19,35.29,35.29,0,0,0,4.6.09c2.83,0,5.67,0,8.51,0h2.24c.77,0,1.47-.08,1.54-1a9.18,9.18,0,0,1,3.59-6.41.91.91,0,0,0,.32-.48c-.59-.41-1.25-.11-1.87-.18H18.5c-3.4,0-6.79.07-10.19,0-.86-.16-1.63-.43-1.87-1.42a2.11,2.11,0,0,1,0-1.22,1.78,1.78,0,0,1,1.42-1.25h0c2.8-.06,5.6,0,8.4,0a5.78,5.78,0,0,1,1.05,0,1.23,1.23,0,0,1,.23.09c-1.05-.05-2.11-.07-3.16-.07H10.94l-2.8,0a1.08,1.08,0,0,0-.38.17c-.59.07-.78.63-1.13,1l0,1.18a1.83,1.83,0,0,0,1.41,1.14l10.65.05h5.69c.81,0,1.65-.31,2.42.21C27,38.67,26.45,38.8,26.2,39.08Z"/><path class="cls-1" d="M52,35.28Q44,43.33,36,51.35c-1.14,1.14-2.71.88-4.09,1.24-1.13.29-2.34.32-3.48.6a1.71,1.71,0,0,1-1.62-.36c-.8-.59-.54-1.43-.43-2.17.26-1.82.6-3.63.93-5.44a3.09,3.09,0,0,1,.9-1.74c5.37-5.35,10.75-10.69,16.07-16.09,1.47-1.49,3.91-2.13,5.64,0,.35.43.74.81,1.11,1.22a14.1,14.1,0,0,1,1.51,1.48A3.87,3.87,0,0,1,52,35.28Z"/><path class="cls-2" d="M8.07,23.45c-.87.09-1.08-.61-1.4-1.18,0,0,0,0,0,0,0-.39,0-.76,0-1.14,0,0,0,0,0,0a4,4,0,0,1,1.18-1.15h0l10.87-.06h.35l.06-.09a.23.23,0,0,0,.06-.12.47.47,0,0,0,.06-.15,22.74,22.74,0,0,0-.06-4.88l0,0h0a.57.57,0,0,0-.08-.13s0-.05-.07-.06h0l0,0h0l0,0c-1.76-.4-3.54-.1-5.3-.19-2.32-.11-3.69-.64-4.36-3a5.45,5.45,0,0,1-.15-2A6.25,6.25,0,0,0,9,7.34v0H9l-.11-.13h0s0,0,0,0h0a1,1,0,0,0-.65-.28h0a10.17,10.17,0,0,0-1.36,0c-.28,0-.55,0-.83,0H5.5A4.18,4.18,0,0,0,2,7.9a5.47,5.47,0,0,0-2,3.95V41.47l.06.06.07.09a.5.5,0,0,1,0,.13h0a.28.28,0,0,1,0,.09.22.22,0,0,1,0,.08,1.36,1.36,0,0,1,0,.17,4.69,4.69,0,0,0,.24.75l.16.36a3.9,3.9,0,0,0,.19.35,3.62,3.62,0,0,0,.2.33l.23.32a3.76,3.76,0,0,0,.25.31,3.45,3.45,0,0,0,.26.28l.36.34c.12.1.24.2.37.29l.39.27h0a5.75,5.75,0,0,0,.65.34,3,3,0,0,0,.38.15,2.24,2.24,0,0,0,.34.11l.41.1a4.46,4.46,0,0,0,.51.07h0l.18.07h0a3.53,3.53,0,0,0,.86,0H17.87c.65,0,1,0,1.21-.21h0c.2-.19.24-.53.25-1.17,0-2,0-4,0-6a2,2,0,0,0-.16-.89,1.26,1.26,0,0,0-.21-.32h-.26a.71.71,0,0,1-.31.1c-3.3,0-6.61,0-9.91,0a.47.47,0,0,1-.41-.17h0l-.28-.1-.27-.11a2,2,0,0,1-.25-.14l-.22-.18a.49.49,0,0,1-.12-.13,1.71,1.71,0,0,1-.11-.14l0,0s0,0,0,0l0-.1a.75.75,0,0,1-.07-.18v0a1.17,1.17,0,0,1,0-1.13s0,0,0,0c.22-.22.38-.52.61-.73a.53.53,0,0,1,.23-.16l.09,0,.16,0h0a1.08,1.08,0,0,1,.38-.17l2.79,0h3.5c1.05,0,2.1,0,3.15.07h0l.95,0h.21l.2-.05h0v-.08a.61.61,0,0,0,.12-.16,0,0,0,0,0,0,0h0s0,0,0,0A1.19,1.19,0,0,0,19.2,34a7.34,7.34,0,0,0-.11-3.36s0,0,0,0l0,0A.08.08,0,0,0,19,30.5l0,0,0,.06-10.52,0c-.3,0-.64.09-.86-.24a1.68,1.68,0,0,1-1-.95c0-.39,0-.78.07-1.17a2.06,2.06,0,0,1,1.85-1l9,.06H19a1.15,1.15,0,0,0-.06.17h0l0,0a.56.56,0,0,0,.21-.27s0,0,0,0l0-.1a0,0,0,0,0,0,0h0l0-.13,0-.15a13.31,13.31,0,0,0-.08-2.89s0,0,0,0a.34.34,0,0,0-.06-.12.31.31,0,0,0-.09-.11h-.32Z"/><path class="cls-3" d="M19,14.44c-1.92,0-3.84,0-5.75,0-2.1,0-3.66-.88-4.2-3.08C8.73,10,9,8.51,8.84,7.08a1.24,1.24,0,0,1,0-.39c.12-.43.12-.88.23-1.31a1.42,1.42,0,0,1,1-.88c.87-.24,1.8.16,2.64-.29a31.09,31.09,0,0,1,1.76-2.59A6.48,6.48,0,0,1,18,0H19.2c0,.15,0,0,0,.11.2,4.53.1,9.06,0,13.6A.93.93,0,0,1,19,14.44Z"/><path class="cls-4" d="M26.73,14.4a4,4,0,0,1-1.59.4c-1.69,0-3.39,0-5.08,0a1.73,1.73,0,0,1-.92-.21L19,14.46v-.1c0-4.29,0-8.59,0-12.87A2.55,2.55,0,0,1,19.2,0h.47c.07.13.14.36.22.37a5.6,5.6,0,0,1,4.77,4.06c1,.51,2.07-.07,3.07.31s1.09,1.08,1.18,1.91a.49.49,0,0,1,0,.11C30.2,9.56,29.12,13.27,26.73,14.4Z"/><path class="cls-5" d="M29.68,20.15l.24.11,0,0,.16-.13"/><path class="cls-6" d="M37.64,12c-.17,1.62,0,3.23-.07,4.85,0,3.26,0,6.53,0,9.79a2.25,2.25,0,0,1-.1,1.15h0C35.4,29.85,33.36,32,31.28,34h0a.38.38,0,0,1-.09.09l-.1.1h0l-.11.08a.74.74,0,0,1-.22.14l-.12.06-.12,0a.8.8,0,0,1-.64-.17h0c-2.46-.25-4.91,0-7.37-.12a21.05,21.05,0,0,1-3.37-.07h0l-.12,0c0-1.17,0-2.34,0-3.51a.23.23,0,0,1,.07-.07l0,0s0,0,0,0c3.31,0,6.62,0,9.93,0,1,0,1.8-.2,2.07-1.31s-.35-1.68-1.22-2.11h-.79a4.59,4.59,0,0,0-.91-.05c-2.14,0-4.28,0-6.42,0H20.54a5.11,5.11,0,0,1-1,0h0a1.55,1.55,0,0,1-.36-.13s0,0,0,0a1.07,1.07,0,0,1-.22-.15V23.7a.79.79,0,0,1,.15-.12.7.7,0,0,1,.17-.09h0l0,0h0l10.51-.06a.57.57,0,0,1,0-.18,1.44,1.44,0,0,0,1.27-1.47,1.42,1.42,0,0,0-1.06-1.61l-.24-.26H19.27l-.15-.08a.79.79,0,0,1-.15-.12V14.46h5.69a3.93,3.93,0,0,0,4.26-4.26V6.65A12,12,0,0,1,33.48,7c.27.11.53.22.78.35s.4.22.59.35l0,0,.08,0,.08.06a6.17,6.17,0,0,1,.57.44,7.66,7.66,0,0,1,.57.57,4.34,4.34,0,0,1,.49.64,4.92,4.92,0,0,1,.41.7c.06.13.12.26.17.39a5.37,5.37,0,0,1,.27.83,3.15,3.15,0,0,1,.11.44S37.64,11.93,37.64,12Z"/><path class="cls-7" d="M51,28.65a2.56,2.56,0,0,1-.85,1.1Q39.07,40.84,28,51.91c-.35.36-.64.81-1.2.92-.8-.59-.54-1.43-.43-2.17.26-1.82.6-3.63.93-5.44a3.09,3.09,0,0,1,.9-1.74c5.37-5.35,10.75-10.69,16.07-16.09,1.47-1.49,3.91-2.13,5.64,0C50.24,27.86,50.63,28.24,51,28.65Z"/><path class="cls-8" d="M52,35.28Q44,43.33,36,51.35c-1.14,1.14-2.71.88-4.09,1.24-1.13.29-2.34.32-3.48.6a1.71,1.71,0,0,1-1.62-.36c.21-.24.4-.49.62-.72L50.19,29.33a10.41,10.41,0,0,1,.81-.68,14.1,14.1,0,0,1,1.51,1.48A3.87,3.87,0,0,1,52,35.28Z"/><path class="cls-6" d="M26.2,39.08c-1,1.13-2.25,2.07-2.89,3.54a23.46,23.46,0,0,0-.75,3.4c-.12.46-.22.66-.73.66-5.36,0-10.72,0-16.08,0a.83.83,0,0,1-.36-.11l-.19-.07c4.17,0,8.34,0,12.5,0a2.06,2.06,0,0,0,.82-.12h0c.33-.15.47-.48.45-1.11-.07-2.33,0-4.67,0-7v-.32h.24a21.37,21.37,0,0,0,4.73,0h.48c.79.29,1.63-.07,2.42.21C27,38.67,26.45,38.8,26.2,39.08Z"/><path class="cls-9" d="M37.45,27.76c0-5,0-9.93,0-14.89,0-.34-.11-.72.19-1q0,7.65,0,15.3C37.69,27.38,37.73,27.64,37.45,27.76Z"/><path class="cls-9" d="M29.85,34.35l-10.9,0v-.1a.38.38,0,0,0,0-.1h.2c3.15,0,6.31,0,9.47,0C29,34.13,29.5,34,29.85,34.35Z"/><path class="cls-10" d="M18.72,37.92c-.2.26-.48.23-.75.23H8.9c-.3,0-.64.07-.83-.28Z"/><path class="cls-11" d="M23.93,37.93a10.22,10.22,0,0,1-4.73,0Z"/><path class="cls-12" d="M27.73,4.74c-1-.16-2.1.35-3.07-.31C25.66,4.7,26.75,4.19,27.73,4.74Z"/><path class="cls-11" d="M26.83,38.14c-.81-.07-1.64.24-2.42-.21C25.22,38,26.06,37.62,26.83,38.14Z"/><path class="cls-10" d="M6.66,36.73a.78.78,0,0,1,0-1.18Z"/><path class="cls-13" d="M6.66,22.25a1.24,1.24,0,0,1,0-1.14C6.64,21.49,6.65,21.86,6.66,22.25Z"/><path class="cls-13" d="M18.71,19.88l-10.87.06c.06,0,.13-.13.19-.13C11.6,19.82,15.15,19.69,18.71,19.88Z"/><path class="cls-13" d="M8.07,23.45a9.07,9.07,0,0,0,2.8.11c2.62,0,5.22.15,7.84-.09Z"/><path class="cls-13" d="M29.86,23.41s0,0,0,0l-.09.08-.05,0c-3.46,0-6.92.13-10.38-.06h0l-.26,0h.32Z"/><path class="cls-13" d="M29.86,19.89H19.27C22.8,19.75,26.33,19.71,29.86,19.89Z"/><path class="cls-13" d="M29.68,20.15l.26.13.16-.13Z"/><path class="cls-14" d="M28.64,26.9H20a2.55,2.55,0,0,0-.78,0h0a.63.63,0,0,0-.2.13l0,.16a1.15,1.15,0,0,0-.06.17h0l0,0a.56.56,0,0,0,.21-.27h.41a5.11,5.11,0,0,0,1,0h1.21l7.33.05h.79C29.52,26.79,29.07,26.91,28.64,26.9Zm-9.55,3.72s0,0,0,0l0,0A.08.08,0,0,0,19,30.5l0,0,0,.06,0,.08Z"/><path class="cls-1" d="M6.63,29.38c0-.39,0-.78.07-1.17C6.39,28.58,6.52,29,6.63,29.38Z"/><path class="cls-15" d="M19,30.48l0,.06v0Zm-.05-3.09h0l0,0v-.12A1.15,1.15,0,0,0,18.9,27.39Z"/><path class="cls-11" d="M29.87,27.17h-.79l-7.33-.05H20.4l-.82,0H19c0-.09,0-.19,0-.28h.28c3.18,0,6.34,0,9.52,0C29.16,26.79,29.67,26.56,29.87,27.17Z"/><path class="cls-9" d="M29.86,19.89H19v-.21h.21c3.15,0,6.3,0,9.46,0C29.05,19.68,29.51,19.52,29.86,19.89Z"/><path class="cls-11" d="M29.86,23.41s0,0,0,0l-.09.08c-.3.29-.7.16-1.06.16H19v-.23h.38Z"/><path class="cls-10" d="M18.71,34.33H17.36l-2.93,0H7.82l0-.06a.85.85,0,0,1,.69-.18c3.17,0,6.34,0,9.51,0A.76.76,0,0,1,18.71,34.33Z"/><path class="cls-10" d="M18.71,19.88l-10.87.06h0c.17-.29.45-.27.72-.27h9.52A.72.72,0,0,1,18.71,19.88Z"/><path class="cls-10" d="M8.07,23.45c.22.31.54.24.85.24h8.93c.31,0,.63.07.86-.22Z"/><path class="cls-16" d="M18.18,31H8.3v-.12h9.89Z"/><path class="cls-17" d="M8.76,6.69a.26.26,0,0,1,.2-.1c0,1.59,0,3.19,0,4.78-.49-1-.19-2.14-.2-3.21,0-.83-.29-1.07-1.09-1.08S6,7.38,5.2,6.86h0C6.38,6.58,7.58,6.91,8.76,6.69Z"/><path class="cls-10" d="M6.7,28.21c0,.39,0,.78-.07,1.17C6.32,29,6.25,28.57,6.7,28.21Z"/><path class="cls-10" d="M6.66,22.25v0a.77.77,0,0,1,0-1.18v0C6.64,21.49,6.65,21.86,6.66,22.25Z"/><path class="cls-18" d="M9.9,4.72c1-.52,2.09-.07,3.13-.25C12,5,10.94,4.61,9.9,4.72Z"/><path class="cls-19" d="M9,6.63c.07-.43-.15-.93.26-1.3C9.17,5.77,9.45,6.28,9,6.63Z"/><path class="cls-2" d="M8.76,6.69c-1.17.4-2.37.09-3.56.17C6.37,6.43,7.57,6.76,8.76,6.69Z"/><path class="cls-14" d="M29.68,20.15l.26.13.16-.13Z"/></g></g></svg>